<?xml version="1.0" encoding="UTF-8"?>
<svg width="176px" height="75px" viewBox="0 0 176 75" version="1.1" xmlns="http://www.w3.org/2000/svg" xmlns:xlink="http://www.w3.org/1999/xlink">
    <title>Logo 1</title>
    <defs>
        <linearGradient x1="-42.272962%" y1="49.5318529%" x2="183.712694%" y2="50.9093477%" id="linearGradient-1">
            <stop stop-color="#C7A05C" offset="0%"></stop>
            <stop stop-color="#F0E293" offset="100%"></stop>
        </linearGradient>
        <linearGradient x1="44.2329399%" y1="12.0800809%" x2="58.3570434%" y2="123.657165%" id="linearGradient-2">
            <stop stop-color="#C7A05C" offset="0%"></stop>
            <stop stop-color="#F0E293" offset="100%"></stop>
        </linearGradient>
        <linearGradient x1="-11.7695035%" y1="12.0800809%" x2="139.510151%" y2="123.657165%" id="linearGradient-3">
            <stop stop-color="#C7A05C" offset="0%"></stop>
            <stop stop-color="#F0E293" offset="100%"></stop>
        </linearGradient>
        <linearGradient x1="-42.272962%" y1="46.6898418%" x2="183.712694%" y2="56.4297835%" id="linearGradient-4">
            <stop stop-color="#C7A05C" offset="0%"></stop>
            <stop stop-color="#F0E293" offset="100%"></stop>
        </linearGradient>
    </defs>
    <g id="Page-1" stroke="none" stroke-width="1" fill="none" fill-rule="evenodd">
        <g id="Logo-1">
            <g id="Group-Copy" transform="translate(31.000000, 0.000000)">
                <rect id="Rectangle" fill="url(#linearGradient-1)" x="5" y="25" width="18" height="2"></rect>
                <polygon id="Rectangle" fill="url(#linearGradient-2)" points="14.2 -1.66533454e-16 17 24 11 24"></polygon>
                <polygon id="Rectangle" fill="#E4CD84" points="18 18.8181818 20 15 20 19.7727273 18.2857143 22"></polygon>
                <polygon id="Rectangle" fill="url(#linearGradient-3)" points="28 13 23 24 19 24"></polygon>
                <polygon id="Rectangle" fill="#E4CD84" transform="translate(9.000000, 19.500000) scale(-1, 1) translate(-9.000000, -19.500000) " points="8 19.8181818 10 16 10 20.7727273 8.28571429 23"></polygon>
                <path d="M9,13 L4,24 C3.11111111,24 1.77777778,24 0,24 L9,13 Z" id="Rectangle" fill="url(#linearGradient-3)" transform="translate(4.500000, 18.500000) scale(-1, 1) translate(-4.500000, -18.500000) "></path>
            </g>
            <text id="LOYALE" fill="url(#linearGradient-4)" fill-rule="nonzero" font-family="Baskerville" font-size="46" font-weight="normal">
                <tspan x="0" y="64">LOYALE</tspan>
            </text>
        </g>
    </g>
</svg>