<svg id="Capa_1" enable-background="new 0 0 508.466 508.466" height="512" viewBox="0 0 508.466 508.466" width="512" xmlns="http://www.w3.org/2000/svg"><g><g><path d="m317.133 122.905h-126.8c-16.389 0-29.676-13.286-29.676-29.676v-56.053c0-16.389 13.286-29.676 29.676-29.676h126.799c16.389 0 29.676 13.286 29.676 29.676v56.053c0 16.39-13.286 29.676-29.675 29.676z" fill="#fdd79b"/><path d="m241.155 93.229v-56.053c0-16.389 13.286-29.676 29.676-29.676h-80.497c-16.389 0-29.676 13.287-29.676 29.676v56.053c0 16.39 13.286 29.676 29.676 29.676h80.497c-16.39 0-29.676-13.286-29.676-29.676z" fill="#fccd7f"/><path d="m305.227 183.404h-102.988v-39.76c0-11.454 9.285-20.74 20.74-20.74h61.509c11.454 0 20.74 9.285 20.74 20.74v39.76z" fill="#f3eae6"/><path d="m238.439 174.137c0-19.32 15.662-34.983 34.983-34.983h31.305c-2.053-9.293-10.328-16.25-20.238-16.25h-61.509c-11.454 0-20.74 9.285-20.74 20.74v39.76h36.2v-9.267z" fill="#efe2dd"/><path d="m407.264 500.966h-306.062c-23.529 0-42.603-19.074-42.603-42.603v-246.355c0-23.529 19.074-42.603 42.603-42.603h306.062c23.529 0 42.603 19.074 42.603 42.603v246.355c0 23.529-19.074 42.603-42.603 42.603z" fill="#fdf6ec"/><path d="m278.203 462.557c-60.415 0-109.391-48.976-109.391-109.391v-179.567c0-1.416.073-2.814.208-4.194h-67.818c-23.529 0-42.603 19.074-42.603 42.603v246.355c0 23.529 19.074 42.603 42.603 42.603h306.062c22.114 0 40.288-16.849 42.396-38.409z" fill="#fef1da"/><path d="m394.688 223.387h-281.911c-6.253 0-11.096 5.47-10.34 11.677l17.516 143.748c4.885 40.085 38.915 70.221 79.297 70.221h108.965c40.381 0 74.412-30.136 79.297-70.221l17.516-143.748c.757-6.207-4.087-11.677-10.34-11.677z" fill="#fee97d"/><path d="m119.954 378.812c4.885 40.085 38.916 70.221 79.297 70.221h26.235c-33.783-18.617-56.673-54.566-56.673-95.866v-129.78h-56.035c-6.253 0-11.096 5.47-10.34 11.677z" fill="#fee45a"/><g><path d="m281.875 122.905h-56.284v-55.497c0-10.203 8.271-18.473 18.473-18.473h19.337c10.203 0 18.473 8.271 18.473 18.473v55.497z" fill="#fccd7f"/><path d="m241.155 93.229v-44.043c-8.816 1.399-15.564 9.012-15.564 18.222v55.497h45.239c-16.389 0-29.675-13.286-29.675-29.676z" fill="#fbc56d"/><path d="m269.027 230.973h-30.588v164.419c0 5.63 4.564 10.193 10.193 10.193h10.202c5.63 0 10.193-4.564 10.193-10.193z" fill="#fedf30"/><path d="m284.644 169.404h-61.823v65.374c0 8.944 7.251 16.195 16.195 16.195h29.434c8.944 0 16.195-7.251 16.195-16.195v-65.374z" fill="#f3eae6"/><path d="m222.822 223.387v11.392c0 8.944 7.25 16.194 16.195 16.194h29.434c8.944 0 16.195-7.25 16.195-16.194v-11.392z" fill="#fedf30"/></g></g><g><path d="m407.264 161.904h-9.244c-4.142 0-7.5 3.357-7.5 7.5s3.358 7.5 7.5 7.5h9.244c19.356 0 35.104 15.747 35.104 35.104v246.355c0 19.355-15.748 35.103-35.104 35.103h-306.062c-19.356 0-35.104-15.747-35.104-35.103v-246.355c0-19.356 15.748-35.104 35.104-35.104h114.119v57.874c0 10.23 6.517 18.965 15.617 22.275v138.337c0 9.757 7.938 17.694 17.694 17.694h10.201c9.756 0 17.694-7.938 17.694-17.694v-27.219c0-4.143-3.358-7.5-7.5-7.5s-7.5 3.357-7.5 7.5v27.219c0 1.485-1.208 2.694-2.694 2.694h-10.201c-1.485 0-2.694-1.209-2.694-2.694v-136.917h15.589v77.736c0 4.143 3.358 7.5 7.5 7.5s7.5-3.357 7.5-7.5v-79.156c9.1-3.31 15.617-12.045 15.617-22.275v-57.874h73.913c4.142 0 7.5-3.357 7.5-7.5s-3.358-7.5-7.5-7.5h-53.33v-18.26c0-4.782-1.199-9.289-3.306-13.24h7.712c20.499 0 37.175-16.677 37.175-37.176v-56.052c0-20.499-16.677-37.176-37.175-37.176h-126.8c-20.499 0-37.175 16.677-37.175 37.176v12.045c0 4.143 3.358 7.5 7.5 7.5s7.5-3.357 7.5-7.5v-12.045c0-12.228 9.948-22.176 22.175-22.176h126.8c12.228 0 22.175 9.948 22.175 22.176v56.053c0 12.228-9.948 22.176-22.175 22.176h-27.758v-47.997c0-14.322-11.652-25.974-25.974-25.974h-19.337c-14.322 0-25.974 11.651-25.974 25.974v47.996h-27.758c-12.228 0-22.175-9.948-22.175-22.176v-12.044c0-4.143-3.358-7.5-7.5-7.5s-7.5 3.357-7.5 7.5v12.045c0 20.499 16.677 37.176 37.175 37.176h7.712c-2.107 3.952-3.306 8.458-3.306 13.24v18.26h-93.537c-27.627 0-50.104 22.477-50.104 50.104v246.355c0 27.627 22.477 50.103 50.104 50.103h306.062c27.627 0 50.104-22.476 50.104-50.103v-246.356c0-27.627-22.476-50.104-50.103-50.104zm-130.119 72.874c0 4.794-3.9 8.694-8.695 8.694h-29.434c-4.794 0-8.695-3.9-8.695-8.694v-57.874h46.823v57.874zm-33.081-178.343h19.337c6.051 0 10.974 4.923 10.974 10.974v47.996h-41.284v-47.997c0-6.051 4.923-10.973 10.973-10.973zm-34.325 87.21c0-7.301 5.939-13.24 13.24-13.24h61.509c7.3 0 13.24 5.939 13.24 13.24v18.26h-87.988v-18.26z"/><path d="m112.777 230.887h80.044c4.142 0 7.5-3.357 7.5-7.5s-3.358-7.5-7.5-7.5h-80.044c-5.125 0-10.014 2.201-13.413 6.038-3.398 3.838-4.993 8.957-4.373 14.046l17.517 143.748c5.336 43.791 42.626 76.813 86.742 76.813h108.965c44.115 0 81.405-33.022 86.742-76.813l17.517-143.749c.62-5.088-.974-10.207-4.373-14.045-3.398-3.837-8.287-6.038-13.413-6.038h-80.044c-4.142 0-7.5 3.357-7.5 7.5s3.358 7.5 7.5 7.5h80.044c1.142 0 1.858.616 2.183.983s.851 1.152.712 2.286l-17.517 143.748c-4.42 36.273-35.31 63.628-71.852 63.628h-108.964c-36.542 0-67.432-27.354-71.852-63.628l-17.517-143.748c-.138-1.134.387-1.919.712-2.286s1.042-.983 2.184-.983z"/></g></g></svg>